<?xml version="1.0" encoding="utf-8"?>
<!-- Generator: Adobe Illustrator 19.1.0, SVG Export Plug-In . SVG Version: 6.00 Build 0)  -->
<svg version="1.0" id="Layer_1" xmlns="http://www.w3.org/2000/svg" xmlns:xlink="http://www.w3.org/1999/xlink" x="0px" y="0px"
	 viewBox="0 0 169.6 148.6" style="enable-background:new 0 0 169.6 148.6;" xml:space="preserve">
<style type="text/css">
	.st0{fill:#231F20;}
	.st1{fill:none;stroke:#ECEBEB;stroke-width:7;stroke-linecap:round;stroke-linejoin:round;stroke-miterlimit:10;}
	.st2{fill:#3596BC;}
	.st3{fill:#00A2CE;}
	.st4{fill:#2C3F48;}
	.st5{fill:#F4C48C;}
	.st6{fill:#996939;}
	.st7{opacity:0.8;fill:#FFFFFF;}
	.st8{fill:#603913;}
	.st9{fill:#C49A6C;}
	.st10{fill:#2B3C46;}
	.st11{fill:#A0C16C;}
	.st12{fill:#617F2B;}
	.st13{fill:#2B3A44;}
	.st14{fill:#BFAF9F;}
	.st15{fill:url(#SVGID_1_);}
	.st16{fill:#FFEC7B;}
	.st17{fill:#BC432B;}
</style>
<g>
	<path class="st0" d="M160.1,104.8c0,0-12.5,16.3-19.8,5.1c17.1-9.4,11.5-21.2,7.4-30.7c-4-9.4-9.1-16.4-9.1-16.4s1.3-14.8-9-27.5
		C119.4,22.7,108.7,1.7,92.9,18C61.3-2.7,61,23.7,30.5,50.4c-13.7,14.2,3.7,44.5-1.6,51.8c-5.3,7.3-9,7.1-11.1-3.4
		c-9.8,11.7,4,20.4,0.6,25.7c-8.3,10.8,28.4,28.8,45.9-2.3c0.6-0.9,1.2-1.7,1.8-2.5c5.7,2.3,11.9,3.5,18.4,3.5
		c9,0,17.5-2.4,24.8-6.7c0.9,1.3,2.2,2.8,4.5,4.4c7.5,5.5,23.9,12.5,34.5,9.8C161.8,127.3,160.1,104.8,160.1,104.8z"/>
	<path class="st1" d="M160.1,104.8c0,0-12.5,16.3-19.8,5.1c17.1-9.4,11.5-21.2,7.4-30.7c-4-9.4-9.1-16.4-9.1-16.4s1.3-14.8-9-27.5
		C119.4,22.7,108.7,1.7,92.9,18C61.3-2.7,61,23.7,30.5,50.4c-13.7,14.2,3.7,44.5-1.6,51.8c-5.3,7.3-9,7.1-11.1-3.4
		c-9.8,11.7,4,20.4,0.6,25.7c-8.3,10.8,28.4,28.8,45.9-2.3c0.6-0.9,1.2-1.7,1.8-2.5c5.7,2.3,11.9,3.5,18.4,3.5
		c9,0,17.5-2.4,24.8-6.7c0.9,1.3,2.2,2.8,4.5,4.4c7.5,5.5,23.9,12.5,34.5,9.8C161.8,127.3,160.1,104.8,160.1,104.8z"/>
</g>
<g>
	<path class="st4" d="M92.9,18C61.3-2.7,61,23.7,30.5,50.4c-13.7,14.2,3.7,44.5-1.6,51.8s-9,7.1-11.1-3.4c-9.8,11.7,4,20.4,0.6,25.7
		c-8.3,10.8,28.4,28.8,45.9-2.3c7.5-10.2,13.4-20,13.4-20l2-17.6h28.6v27c0,0-1.9,3.8,5.5,9.3c7.5,5.5,23.9,12.5,34.5,9.8
		c13.5-3.4,11.7-25.8,11.7-25.8s-12.5,16.3-19.8,5.1c17.1-9.4,11.5-21.2,7.4-30.7s-9.1-16.4-9.1-16.4s1.3-14.8-9-27.5
		S108.7,1.7,92.9,18z"/>
	
		<radialGradient id="SVGID_1_" cx="77.4797" cy="67.4257" r="66.1573" gradientTransform="matrix(0.5746 0.8184 -0.9821 0.6896 99.176 -42.4785)" gradientUnits="userSpaceOnUse">
		<stop  offset="0" style="stop-color:#130C0E;stop-opacity:0"/>
		<stop  offset="0.2621" style="stop-color:#160C0F;stop-opacity:0.1573"/>
		<stop  offset="0.4506" style="stop-color:#1F0B12;stop-opacity:0.2703"/>
		<stop  offset="0.616" style="stop-color:#2F0917;stop-opacity:0.3696"/>
		<stop  offset="0.7681" style="stop-color:#45061D;stop-opacity:0.4609"/>
		<stop  offset="0.9098" style="stop-color:#620326;stop-opacity:0.5459"/>
		<stop  offset="1" style="stop-color:#78002D;stop-opacity:0.6"/>
	</radialGradient>
	<circle class="st15" cx="84.5" cy="73.2" r="49.7"/>
	<circle class="st5" cx="84.5" cy="73.4" r="49.7"/>
	<path class="st4" d="M136.6,77.6c0.1-1,0.1-2,0.1-3c0-28.8-23.4-52.2-52.2-52.2c-28.8,0-52.2,23.4-52.2,52.2c0,1,0,1.9,0.1,2.9
		C51,70,84.3,52.6,84.3,52.6S118.4,70.3,136.6,77.6z"/>
	<path class="st16" d="M84.3,57.3c18.1,0,36.9,2.3,48.4,3.9c-1.3-5.4-3.6-10.4-6.5-14.9c-7.4,0.1-14.8-0.3-19.5-1.5
		C93.9,41.4,84.3,30,84.3,30S75.5,41.2,62,44.8c-4.8,1.3-12,1.7-19.2,1.6l0,0c-2.9,4.5-5.1,9.5-6.4,14.8
		C47.9,59.5,66.5,57.3,84.3,57.3z"/>
	<polygon class="st17" points="84.3,35.7 87,42 93.9,42.6 88.7,47.1 90.3,53.9 84.3,50.2 78.4,53.9 80,47.1 74.8,42.6 81.7,42 	"/>
	<path class="st4" d="M73.6,79.1c1.9,0.1,3.1-1.1,2.6-2.7c-0.4-1.5-2.3-3.2-4.2-3.6l-10.7-2.7c-1.8-0.5-4,0.6-4.8,2.3l-1.3,2.9
		c-0.8,1.7,0.1,3.2,2,3.3L73.6,79.1z"/>
	<path class="st4" d="M95,79.1c-1.9,0.1-3.1-1.1-2.6-2.7c0.4-1.5,2.3-3.2,4.2-3.6l10.7-2.7c1.8-0.5,4,0.6,4.8,2.3l1.3,2.9
		c0.8,1.7-0.1,3.2-2,3.3L95,79.1z"/>
	<path class="st17" d="M100,100.6c0,0-23.3-1.7-15.5-1.7S69,100.6,69,100.6s5.8-4.8,12.6-5.3c0.6-0.1,2.3,1.1,2.9,1.1
		c0.7,0,2.6-1.1,3.3-1C94.4,95.9,100,100.6,100,100.6z"/>
	<polygon class="st4" points="112.2,68.3 111.5,72.3 108.2,70.3 	"/>
	<polygon class="st4" points="56.5,68.3 57.2,72.3 60.5,70.3 	"/>
	<path class="st17" d="M99.4,100.6c0,1.3-8.6,3-14.9,3s-14.9-1.6-14.9-3c0-1.3,8.6-1.8,14.9-1.8S99.4,99.3,99.4,100.6z"/>
</g>
</svg>
