<?xml version="1.0" encoding="utf-8"?>
<!-- Generator: Adobe Illustrator 19.1.0, SVG Export Plug-In . SVG Version: 6.00 Build 0)  -->
<svg version="1.0" id="Layer_1" xmlns="http://www.w3.org/2000/svg" xmlns:xlink="http://www.w3.org/1999/xlink" x="0px" y="0px"
	 viewBox="0 0 173.5 149.5" style="enable-background:new 0 0 173.5 149.5;" xml:space="preserve">
<style type="text/css">
	.st0{fill:#231F20;}
	.st1{fill:none;stroke:#ECEBEB;stroke-width:7;stroke-linecap:round;stroke-linejoin:round;stroke-miterlimit:10;}
	.st2{fill:url(#SVGID_1_);}
	.st3{fill:#3596BC;}
	.st4{fill:#00A2CE;}
	.st5{fill:#2C3F48;}
	.st6{fill:#F4C48C;}
	.st7{fill:#996939;}
	.st8{opacity:0.8;fill:#FFFFFF;}
	.st9{fill:#603913;}
	.st10{fill:#C49A6C;}
	.st11{fill:#2B3C46;}
	.st12{fill:url(#SVGID_2_);}
	.st13{fill:#A0C16C;}
	.st14{fill:#617F2B;}
	.st15{fill:#2B3A44;}
	.st16{fill:#BFAF9F;}
	.st17{fill:url(#SVGID_3_);}
	.st18{fill:#FFEC7B;}
	.st19{fill:#BC432B;}
	.st20{fill:url(#SVGID_4_);}
	.st21{fill:url(#SVGID_5_);}
	.st22{fill:url(#SVGID_6_);}
	.st23{fill:url(#SVGID_7_);}
	.st24{fill:url(#SVGID_8_);}
	.st25{fill:url(#SVGID_9_);}
	.st26{fill:url(#SVGID_10_);}
	.st27{fill:url(#SVGID_11_);}
	.st28{fill:url(#SVGID_12_);}
	.st29{fill:url(#SVGID_13_);}
	.st30{fill:#ECEBEB;}
	.st31{fill:#2B2B2B;}
	.st32{fill:none;stroke:#FFFFFF;stroke-miterlimit:10;}
</style>
<g>
	<path class="st0" d="M160.3,48.8c-3.7-2.5-14.8-5-24.3-6.7l-4.8-10.9c0,0,0,0-0.1,0.1c-2-8.6-4.2-17.7-4.4-18.4
		c-1.4-5-7.1-9-13.9-7.2c-6.8,1.9-12.8,5.7-26.1,5.8c-13.3,0.1-22.9-6-29.2-5.8c-2,0.1-3.8,0.5-5.3,1.3c-3.2,1.2-5.6,3.9-6.4,6.8
		c-0.2,0.6-2.2,9.1-4.1,17.3c0,0-0.1,0-0.1,0l-4.8,10.8c-9.6,1.7-21.2,4.2-25.1,6.8c-1.5,1-1.6,2.4-0.4,3.8c0.4,0.4,0.8,0.8,1.2,1.2
		c-0.1,0,8.7,5.6,18.1,11.5c-5.2,15.9,9.2,41.8,1.6,54.2c-5.7,7.8-14,13.6-14,13.6s28.4,28.8,45.9-2.3c0.6-0.9,1.2-1.7,1.8-2.5
		c5.7,2.3,11.9,3.5,18.4,3.5c9,0,17.5-2.4,24.8-6.7c0.9,1.3,2.2,2.8,4.5,4.4c7.5,5.5,15.5,12.9,26.1,10.2
		c13.5-3.4,17.9-9.5,17.9-9.5s-13.5,2-15.9-40.7c-0.3-5.3-0.8-13.9-2.7-22.7c10.1-6.4,20.6-13,20.4-13c0.5-0.4,0.9-0.8,1.2-1.2
		C162,51.2,161.9,49.8,160.3,48.8z"/>
	<path class="st1" d="M160.3,48.8c-3.7-2.5-14.8-5-24.3-6.7l-4.8-10.9c0,0,0,0-0.1,0.1c-2-8.6-4.2-17.7-4.4-18.4
		c-1.4-5-7.1-9-13.9-7.2c-6.8,1.9-12.8,5.7-26.1,5.8c-13.3,0.1-22.9-6-29.2-5.8c-2,0.1-3.8,0.5-5.3,1.3c-3.2,1.2-5.6,3.9-6.4,6.8
		c-0.2,0.6-2.2,9.1-4.1,17.3c0,0-0.1,0-0.1,0l-4.8,10.8c-9.6,1.7-21.2,4.2-25.1,6.8c-1.5,1-1.6,2.4-0.4,3.8c0.4,0.4,0.8,0.8,1.2,1.2
		c-0.1,0,8.7,5.6,18.1,11.5c-5.2,15.9,9.2,41.8,1.6,54.2c-5.7,7.8-14,13.6-14,13.6s28.4,28.8,45.9-2.3c0.6-0.9,1.2-1.7,1.8-2.5
		c5.7,2.3,11.9,3.5,18.4,3.5c9,0,17.5-2.4,24.8-6.7c0.9,1.3,2.2,2.8,4.5,4.4c7.5,5.5,15.5,12.9,26.1,10.2
		c13.5-3.4,17.9-9.5,17.9-9.5s-13.5,2-15.9-40.7c-0.3-5.3-0.8-13.9-2.7-22.7c10.1-6.4,20.6-13,20.4-13c0.5-0.4,0.9-0.8,1.2-1.2
		C162,51.2,161.9,49.8,160.3,48.8z"/>
</g>
<g>
	<path class="st9" d="M92.8,26.6C59.7,4.9,63.8,33.3,34.4,59c-13.7,14.2,6.7,46.3-2.1,60.5c-5.7,7.8-14,13.6-14,13.6
		s28.4,28.8,45.9-2.3c7.5-10.2,13.4-20,13.4-20l2-17.6h28.6v27c0,0-1.9,3.8,5.5,9.3c7.5,5.5,15.5,12.9,26.1,10.2
		c13.5-3.4,17.9-9.5,17.9-9.5s-13.5,2-15.9-40.7c-0.6-10.2-2-32.8-12.3-45.5C118.1,29.8,107.2,11.8,92.8,26.6z"/>
	<circle class="st6" cx="84.5" cy="82" r="49.7"/>
	<path class="st5" d="M73.6,87.7c1.9,0.1,3.1-1.1,2.6-2.7c-0.4-1.5-2.3-3.2-4.2-3.6l-10.7-2.7c-1.8-0.5-4,0.6-4.8,2.3l-1.3,2.9
		c-0.8,1.7,0.1,3.2,2,3.3L73.6,87.7z"/>
	<path class="st5" d="M95,87.7c-1.9,0.1-3.1-1.1-2.6-2.7c0.4-1.5,2.3-3.2,4.2-3.6l10.7-2.7c1.8-0.5,4,0.6,4.8,2.3l1.3,2.9
		c0.8,1.7-0.1,3.2-2,3.3L95,87.7z"/>
	<path class="st19" d="M100,109.2c0,0-23.3-1.7-15.5-1.7S69,109.2,69,109.2s5.8-4.8,12.6-5.3c0.6-0.1,2.3,1.1,2.9,1.1
		c0.7,0,2.6-1.1,3.3-1C94.3,104.5,100,109.2,100,109.2z"/>
	<polygon class="st5" points="112.1,76.9 111.4,80.9 108.1,78.9 	"/>
	<polygon class="st5" points="56.4,76.9 57.1,80.9 60.5,78.9 	"/>
	<path class="st19" d="M99.3,109.2c0,1.3-8.6,3-14.9,3s-14.9-1.6-14.9-3c0-1.3,8.6-1.8,14.9-1.8S99.3,107.9,99.3,109.2z"/>
</g>
<path class="st9" d="M132.5,94.9c0,0-0.6-5-4.3-8.1c-4.3-3.6-8.8-9.3-8.8-17.2c0-14.6,13.7-4,13.7-4l2,24.1L132.5,94.9z"/>
<path class="st9" d="M43.3,109.8c0,0-4.3-11.1-1.2-16.6c3.8-6.6,7.9-15.6,7.9-23.5c0-14.6-15.8-4-15.8-4L30,78.8l6.6,22.3
	L43.3,109.8z"/>
<path class="st19" d="M159.6,53.7c0.5-0.4,0.9-0.8,1.2-1.2c1.2-1.3,1.1-2.7-0.4-3.8c-7-4.7-39.4-9.1-39.4-9.1
	c-9.7-1.3-22.2-1.6-34.8-1.1C73.5,38,61,38.3,51.3,39.6c0,0-32.4,4.4-39.4,9.1c-1.5,1-1.6,2.4-0.4,3.8c0.4,0.4,0.8,0.8,1.2,1.2
	c-0.2,0.1,39.3,24.8,39.3,24.8c9.4,4.5,21.8,6.6,34.2,6.5c12.4,0.2,24.7-2,34.2-6.5C120.3,78.6,159.8,53.8,159.6,53.7z"/>
<path class="st19" d="M134.7,46.3c0,0-7.6-32.2-7.9-33.5c-1.4-5-7.1-9-13.9-7.2c-6.8,1.9-12.8,5.7-26.1,5.8
	c-13.3,0.1-22.9-6-29.2-5.8c-2,0.1-3.8,0.5-5.3,1.3c-3.2,1.2-5.6,3.9-6.4,6.8c-0.4,1.3-7.9,33.5-7.9,33.5l0.8,0.2
	c-0.5,2.1-0.8,3.4-0.8,3.4l29.6,4.7l15.8,4.5l51.4-8.2c0,0-0.5-2.1-1.2-5.3L134.7,46.3z"/>
<path class="st5" d="M131.2,31.1c0,0-16.1,10.6-45.2,10.6S41.7,31.1,41.7,31.1l-5,11.3c0,0,17,14,49.3,14s50.2-14,50.2-14
	L131.2,31.1z"/>
</svg>
