<?xml version="1.0" encoding="utf-8"?>
<!-- Generator: Adobe Illustrator 19.1.0, SVG Export Plug-In . SVG Version: 6.00 Build 0)  -->
<svg version="1.0" id="Layer_1" xmlns="http://www.w3.org/2000/svg" xmlns:xlink="http://www.w3.org/1999/xlink" x="0px" y="0px"
	 viewBox="0 0 169.6 148.6" style="enable-background:new 0 0 169.6 148.6;" xml:space="preserve">
<style type="text/css">
	.st0{fill:#231F20;}
	.st1{fill:none;stroke:#ECEBEB;stroke-width:7;stroke-linecap:round;stroke-linejoin:round;stroke-miterlimit:10;}
	.st2{fill:#3596BC;}
	.st3{fill:#00A2CE;}
	.st4{fill:#2C3F48;}
	.st5{fill:#F4C48C;}
	.st6{fill:#996939;}
	.st7{opacity:0.8;fill:#FFFFFF;}
	.st8{fill:#603913;}
	.st9{fill:#C49A6C;}
	.st10{fill:#2B3C46;}
	.st11{fill:#A0C16C;}
	.st12{fill:#617F2B;}
	.st13{fill:#2B3A44;}
	.st14{fill:#BFAF9F;}
	.st15{fill:url(#SVGID_1_);}
	.st16{fill:#FFEC7B;}
	.st17{fill:#BC432B;}
</style>
<g>
	<path class="st0" d="M158.1,17.8c0,0-0.8,10.3-14.7,15.5c-13.9,5.1-17.7,6.3-32.3,6.1c-8.7-0.1-14.7,3-16.6,7c-3.6,1-7.1,2-10.1,2
		c-3,0-6.6-1-10.3-2c-1.9-4-8-7.1-16.6-7c-14.6,0.2-18.4-0.9-32.3-6.1c-13.9-5.1-14.7-15.5-14.7-15.5s-2.5,8.3,10,18.3
		c2.2,1.8,4.7,3.6,7.3,5.4c-1.5,0.2-2.5,1.5-2.4,3.5l0.3,4.6c0.2,2.7,2.5,5.2,5.2,5.5l10.6,1.3c-0.3,0.7-0.6,1.5-1,2.3
		c-1.8,4.3-5.7,15.1-5.7,20.9c0,27.4,22.2,49.7,49.7,49.7c27.4,0,49.7-22.2,49.7-49.7c0-5.4-3.7-15.9-5.3-20.1
		c-0.4-1.1-0.9-2.1-1.3-3.1l10.6-1.3c2.7-0.3,5-2.8,5.2-5.5l0.3-4.6c0.1-2-1-3.4-2.6-3.5c2.6-1.8,5-3.6,7.2-5.4
		C160.6,26.1,158.1,17.8,158.1,17.8z"/>
	<path class="st1" d="M158.1,17.8c0,0-0.8,10.3-14.7,15.5c-13.9,5.1-17.7,6.3-32.3,6.1c-8.7-0.1-14.7,3-16.6,7c-3.6,1-7.1,2-10.1,2
		c-3,0-6.6-1-10.3-2c-1.9-4-8-7.1-16.6-7c-14.6,0.2-18.4-0.9-32.3-6.1c-13.9-5.1-14.7-15.5-14.7-15.5s-2.5,8.3,10,18.3
		c2.2,1.8,4.7,3.6,7.3,5.4c-1.5,0.2-2.5,1.5-2.4,3.5l0.3,4.6c0.2,2.7,2.5,5.2,5.2,5.5l10.6,1.3c-0.3,0.7-0.6,1.5-1,2.3
		c-1.8,4.3-5.7,15.1-5.7,20.9c0,27.4,22.2,49.7,49.7,49.7c27.4,0,49.7-22.2,49.7-49.7c0-5.4-3.7-15.9-5.3-20.1
		c-0.4-1.1-0.9-2.1-1.3-3.1l10.6-1.3c2.7-0.3,5-2.8,5.2-5.5l0.3-4.6c0.1-2-1-3.4-2.6-3.5c2.6-1.8,5-3.6,7.2-5.4
		C160.6,26.1,158.1,17.8,158.1,17.8z"/>
</g>
<g>
	<g>
		<path class="st8" d="M57.5,39.3c-14.6,0.2-18.4-0.9-32.3-6.1c-13.9-5.1-14.7-15.5-14.7-15.5s-2.5,8.3,10,18.3
			c8.2,6.5,20.1,13.8,26.7,20.1c3.1,3,14.9,8,24.4-0.9C79.3,48.1,72,39.1,57.5,39.3z"/>
		<path class="st8" d="M158.1,17.8c0,0-0.8,10.3-14.7,15.5c-13.9,5.1-17.7,6.3-32.3,6.1s-21.9,8.8-14.1,16
			c9.6,8.9,21.3,3.8,24.4,0.9c6.6-6.2,18.5-13.5,26.7-20.1C160.6,26.1,158.1,17.8,158.1,17.8z"/>
	</g>
	<path class="st9" d="M51.5,49.5c2.6,0.9,3.5,3.1,2.1,4.9c-1.4,1.8-4.7,3-7.4,2.7l-15.6-1.9c-2.7-0.3-5-2.8-5.2-5.5L25.2,45
		c-0.2-2.7,1.8-4.2,4.4-3.3L51.5,49.5z"/>
	<path class="st9" d="M117.1,49.5c-2.6,0.9-3.5,3.1-2.1,4.9c1.4,1.8,4.7,3,7.4,2.7l15.6-1.9c2.7-0.3,5-2.8,5.2-5.5l0.3-4.6
		c0.2-2.7-1.8-4.2-4.4-3.3L117.1,49.5z"/>
	<path class="st9" d="M134,79.6c0,27.4-22.2,49.7-49.7,49.7s-49.7-22.2-49.7-49.7c0-5.8,3.9-16.5,5.7-20.9
		c4.4-10.6,6.9-11.4,18.9-14.7c6.4-1.8,17.6,4.3,25.2,4.3c7.5,0,18.6-6.1,25-4.4c12.4,3.3,15.1,4.4,19.4,15.6
		C130.3,63.7,134,74.2,134,79.6z"/>
	<path class="st10" d="M72.3,84.2c1.9,0.1,2-0.5,0.3-1.3l-5.1-2.2c-1.7-0.8-4.5-2.2-6.1-3.3l-1.8-1.2c-1.6-1-3.5-0.5-4.3,1.2
		l-1.3,2.9c-0.8,1.7,0.1,3.2,2,3.3L72.3,84.2z"/>
	<path class="st10" d="M96,84.2c-1.9,0.1-2-0.5-0.3-1.3l5.1-2.2c1.7-0.8,4.5-2.2,6.1-3.3l1.8-1.2c1.6-1,3.5-0.5,4.3,1.2l1.3,2.9
		c0.8,1.7-0.1,3.2-2,3.3L96,84.2z"/>
	<path class="st10" d="M97.6,97c0-0.3-0.1-0.5-0.3-0.6c-0.3-0.1-0.9-0.2-1.6-0.2c-0.7,0-1.5,0-2.2,0.1c-1.4,0.2-3.6,0.4-4.8,0.6
		C88.4,97,88,97,87.5,97c-0.2,0-0.4,0-0.6,0c-1.1,0-2.2,0.1-2.5,0.1c0,0-0.1,0-0.1,0c0,0,0,0,0,0s0,0,0,0c0,0,0,0-0.1,0
		c-0.4,0-1.4,0-2.5-0.1c-0.1,0-0.3,0-0.6,0c-0.4,0-0.8-0.1-1.1-0.1c-1.2-0.1-3.4-0.4-4.8-0.6c-0.7-0.1-1.5-0.1-2.2-0.1
		c-0.7,0-1.3,0.1-1.6,0.2c-0.2,0.1-0.2,0.3-0.3,0.6c0,0,0,0,0,0c0,0,0,0.1,0,0.1c0,0.8,0.5,2.3,0.9,3.3c0,0,0,0.1,0.1,0.1
		c0.6,1.2,2.3,1,3.7-0.5c0,0,0,0,1.7,0c0.1,0,0.1,0,0.2,0c0,0,0.1,0,0.1,0c1.7,0,3.2,1.4,3.2,3.2c0,1,0.9,2.1,1.2,2.1
		c0.1,0,0.2,0,0.3,0c0,0,0.1,0,0.1,0c0.1,0,0.3,0,0.4,0c0.1,0,0.1,0,0.2,0c0.1,0,0.2,0,0.4,0c0.1,0,0.1,0,0.2,0c0.1,0,0.2,0,0.3,0
		c0.1,0,0.2,0,0.3,0c0.1,0,0.2,0,0.3,0c0.1,0,0.2,0,0.3,0c0.1,0,0.1,0,0.2,0c0.1,0,0.2,0,0.4,0c0.1,0,0.1,0,0.2,0c0.1,0,0.3,0,0.4,0
		c0,0,0.1,0,0.1,0c0.1,0,0.2,0,0.3,0c0.3,0,1.2-1.1,1.2-2.1c0-1.7,1.4-3.2,3.2-3.2c0,0,0.1,0,0.1,0c0.1,0,0.1,0,0.2,0
		c1.7,0,1.7,0,1.7,0c1.4,1.5,3.1,1.7,3.7,0.5c0,0,0-0.1,0.1-0.1c0.5-1,0.9-2.4,0.9-3.3C97.6,97,97.6,97,97.6,97
		C97.6,97,97.6,97,97.6,97z"/>
	<path class="st10" d="M96.7,110c0-0.1,0-0.1,0-0.2c0-0.3-0.1-0.7-0.1-1c0-0.1,0-0.2-0.1-0.3c-0.1-0.3-0.1-0.6-0.2-0.8
		c0-0.2-0.1-0.3-0.1-0.5c-0.1-0.2-0.2-0.5-0.3-0.7c-0.1-0.2-0.1-0.3-0.2-0.5c-0.1-0.2-0.2-0.5-0.3-0.7c-0.1-0.1-0.2-0.3-0.2-0.4
		c-0.1-0.2-0.3-0.5-0.4-0.7c-0.1-0.1-0.1-0.2-0.2-0.3c-0.2-0.3-0.4-0.5-0.6-0.8c0-0.1-0.1-0.1-0.1-0.2c-0.2-0.3-0.5-0.5-0.7-0.8
		c0,0,0,0-0.1-0.1c-0.4-0.4-1.3-0.4-2-0.3c-0.4,0.1-0.7,0.3-0.8,0.6c-0.2,0.6,0.1,2.5,0.2,2.6c0.1,0.1,0.2,0.3,0.4,0.4
		c0.2,0.3,0.5,0.5,0.7,0.8c0,0,0,0.1,0.1,0.1c0.1,0.2,0.2,0.4,0.3,0.6c0,0.1,0.1,0.1,0.1,0.2c0.1,0.2,0.2,0.4,0.3,0.6
		c0,0.1,0.1,0.2,0.1,0.2c0.1,0.2,0.1,0.4,0.2,0.6c0,0.1,0.1,0.2,0.1,0.3c0,0.2,0.1,0.3,0.1,0.5c0,0.2,0.1,0.3,0.1,0.5
		c0,0.1,0,0.3,0.1,0.4c0,0.3,0.1,0.6,0.1,0.9c0,2.1-0.7,4-2,5.5c-1.6,1.9-4,3.1-6.6,3.1h0h0c-2.7,0-5-1.2-6.6-3.1
		c-1.2-1.5-2-3.4-2-5.5c0-0.3,0-0.6,0.1-0.9c0-0.1,0-0.3,0.1-0.4c0-0.2,0-0.3,0.1-0.5c0-0.2,0.1-0.3,0.1-0.5c0-0.1,0.1-0.2,0.1-0.3
		c0.1-0.2,0.1-0.4,0.2-0.6c0-0.1,0.1-0.2,0.1-0.2c0.1-0.2,0.2-0.4,0.3-0.6c0-0.1,0.1-0.1,0.1-0.2c0.1-0.2,0.2-0.4,0.3-0.6
		c0,0,0-0.1,0.1-0.1c0.2-0.3,0.4-0.6,0.7-0.8c0.1-0.1,0.2-0.3,0.4-0.4c0.1-0.1,0.4-2,0.2-2.6c-0.1-0.3-0.4-0.5-0.8-0.6
		c-0.6-0.2-1.6-0.1-2,0.3c0,0,0,0-0.1,0.1c-0.3,0.2-0.5,0.5-0.7,0.8c0,0.1-0.1,0.1-0.1,0.2c-0.2,0.2-0.4,0.5-0.6,0.8
		c-0.1,0.1-0.1,0.2-0.2,0.3c-0.2,0.2-0.3,0.5-0.4,0.7c-0.1,0.1-0.2,0.3-0.2,0.4c-0.1,0.2-0.2,0.4-0.3,0.7c-0.1,0.2-0.1,0.3-0.2,0.5
		c-0.1,0.2-0.2,0.5-0.3,0.7c0,0.1-0.1,0.3-0.1,0.5c-0.1,0.3-0.2,0.5-0.2,0.8c0,0.1,0,0.2-0.1,0.3c-0.1,0.3-0.1,0.7-0.1,1
		c0,0.1,0,0.1,0,0.2c0,0.4-0.1,0.8-0.1,1.2c0,3,1.1,5.8,2.8,7.9c2.3,2.8,5.7,4.5,9.6,4.5c3.9,0,7.3-1.8,9.6-4.5
		c1.8-2.1,2.8-4.9,2.8-7.9C96.8,110.7,96.7,110.3,96.7,110z"/>
</g>
</svg>
