<?xml version="1.0" encoding="utf-8"?>
<!-- Generator: Adobe Illustrator 19.1.0, SVG Export Plug-In . SVG Version: 6.00 Build 0)  -->
<svg version="1.0" id="Layer_1" xmlns="http://www.w3.org/2000/svg" xmlns:xlink="http://www.w3.org/1999/xlink" x="0px" y="0px"
	 viewBox="0 0 169.6 148.6" style="enable-background:new 0 0 169.6 148.6;" xml:space="preserve">
<style type="text/css">
	.st0{fill:#231F20;}
	.st1{fill:none;stroke:#ECEBEB;stroke-width:7;stroke-linecap:round;stroke-linejoin:round;stroke-miterlimit:10;}
	.st2{fill:#3596BC;}
	.st3{fill:#00A2CE;}
	.st4{fill:#2C3F48;}
	.st5{fill:#F4C48C;}
	.st6{fill:#996939;}
	.st7{opacity:0.8;fill:#FFFFFF;}
	.st8{fill:#603913;}
	.st9{fill:#C49A6C;}
	.st10{fill:#2B3C46;}
	.st11{fill:#A0C16C;}
	.st12{fill:#617F2B;}
	.st13{fill:#2B3A44;}
	.st14{fill:#BFAF9F;}
	.st15{fill:url(#SVGID_1_);}
	.st16{fill:#FFEC7B;}
	.st17{fill:#BC432B;}
</style>
<g>
	<path class="st0" d="M141.7,105.8l-3.4-1.6c-2.9-1.4-7.5-4.1-10.2-5.9l-0.2-0.1c0.2-0.4,0.4-0.8,0.7-1.2l7.3,3.3
		c3,1.4,5.5-0.2,5.6-3.5l0.2-5.5c0.1-3.3-2.5-5.6-5.7-5.2l-3.2,0.4c1.1-4.1,1.7-8.5,1.7-13c0-27.4-22.2-49.7-49.7-49.7
		c0,0,0,0-0.1,0c0,0,0,0-0.1,0c-24.4,0-44.6,17.5-48.8,40.7c-0.1,0-0.1,0-0.1,0C34.8,68.2,35,72,35,75.8c0,1.1,0.1,2.3,0.3,3.4
		c2.8,24.7,23.8,44,49.3,44c0,0,0,0,0.1,0c0,0,0,0,0.1,0c16.3,0,30.7-7.8,39.8-19.9l9.5,14.5c1.8,2.7,4.7,2.7,6.6,0l3.1-4.6
		C145.6,110.5,144.6,107.2,141.7,105.8z"/>
	<path class="st1" d="M141.7,105.8l-3.4-1.6c-2.9-1.4-7.5-4.1-10.2-5.9l-0.2-0.1c0.2-0.4,0.4-0.8,0.7-1.2l7.3,3.3
		c3,1.4,5.5-0.2,5.6-3.5l0.2-5.5c0.1-3.3-2.5-5.6-5.7-5.2l-3.2,0.4c1.1-4.1,1.7-8.5,1.7-13c0-27.4-22.2-49.7-49.7-49.7
		c0,0,0,0-0.1,0c0,0,0,0-0.1,0c-24.4,0-44.6,17.5-48.8,40.7c-0.1,0-0.1,0-0.1,0C34.8,68.2,35,72,35,75.8c0,1.1,0.1,2.3,0.3,3.4
		c2.8,24.7,23.8,44,49.3,44c0,0,0,0,0.1,0c0,0,0,0,0.1,0c16.3,0,30.7-7.8,39.8-19.9l9.5,14.5c1.8,2.7,4.7,2.7,6.6,0l3.1-4.6
		C145.6,110.5,144.6,107.2,141.7,105.8z"/>
</g>
<g>
	<path class="st2" d="M110.4,88.7c-3-1.4-2.7-2.3,0.5-2.2l9.5,0.5c3.3,0.2,8.6,0,11.8-0.4l3.7-0.5c3.2-0.4,5.8,1.9,5.7,5.2l-0.2,5.5
		c-0.1,3.3-2.6,4.8-5.6,3.5L110.4,88.7z"/>
	<path class="st2" d="M118.7,94.4c-1.8-2.7-1.1-3.4,1.6-1.6l7.8,5.5c2.7,1.9,7.3,4.5,10.2,5.9l3.4,1.6c2.9,1.4,3.9,4.7,2.1,7.4
		l-3.1,4.6c-1.8,2.7-4.8,2.7-6.6,0L118.7,94.4z"/>
	<circle class="st11" cx="84.6" cy="73.5" r="49.7"/>
	<path class="st2" d="M35,75.8c0,2.8,0.8,5.5,1.2,8.1c0,0,18.2-2.3,47.4-2.3s49.4,2.3,49.4,2.3c0.4-2.6,1.2-5.3,1.2-8.1
		c0-3.9,0.1-7.7-0.7-11.3c0,0-10.5-2.5-23.4-1.3C102,64,92.8,68,84,68c-10.7,0-21.3-4.3-30.2-5.3c-10-1.1-18.2,1.8-18.2,1.8
		C34.8,68.2,35,72,35,75.8z"/>
	<path class="st4" d="M96.2,77.8c-1.9,0-3.1-1.2-2.6-2.7c0.5-1.5,2.4-3.1,4.3-3.5l10.8-2.4c1.9-0.4,4,0.7,4.7,2.4l1.3,3
		c0.7,1.8-0.2,3.2-2.1,3.2L96.2,77.8z"/>
	<path class="st4" d="M72.8,77.7c1.9,0,3-1.3,2.5-2.8c-0.5-1.5-2.5-3.1-4.3-3.4l-10.8-2.2c-1.9-0.4-4,0.7-4.7,2.5l-1.2,3
		c-0.7,1.8,0.3,3.2,2.2,3.2L72.8,77.7z"/>
	<path class="st12" d="M62.6,98c-1.7-0.3-3.6,0.7-4.2,2.3l-1.1,2.7c-0.6,1.6,0.2,2.9,1.9,2.8l14.7-2l21.1,0.1l14.7,1.8
		c1.7,0,2.6-1.3,1.9-2.9l-1.1-2.7c-0.7-1.6-2.6-2.6-4.2-2.2c0,0-7,4.9-21.6,4.9S62.6,98,62.6,98z"/>
</g>
</svg>
