<?xml version="1.0" encoding="utf-8"?>
<!-- Generator: Adobe Illustrator 19.1.0, SVG Export Plug-In . SVG Version: 6.00 Build 0)  -->
<svg version="1.0" id="Layer_1" xmlns="http://www.w3.org/2000/svg" xmlns:xlink="http://www.w3.org/1999/xlink" x="0px" y="0px"
	 viewBox="-493 482 347.8 24.6" style="enable-background:new -493 482 347.8 24.6;" xml:space="preserve">
<style type="text/css">
	.st0{fill:#BDBDBD;}
	.st1{fill:#FFFFFF;}
</style>
<g>
	<g>
		<path class="st0" d="M-218.5,492l-5,13.4h-0.9l5-13.4C-219.4,492-218.5,492-218.5,492z"/>
	</g>
	<g>
		<path class="st0" d="M-205.5,498.4h4.6v6.5c-0.7,0.2-1.5,0.4-2.2,0.5c-0.7,0.1-1.6,0.2-2.5,0.2c-2,0-3.7-0.6-4.7-1.8
			c-1-1.2-1.7-2.9-1.7-5.1c0-1.4,0.3-2.6,0.8-3.7c0.5-1,1.4-1.9,2.4-2.4s2.3-0.8,3.7-0.8c1.5,0,2.7,0.3,4,0.8l-0.6,1.4
			c-1.3-0.5-2.4-0.7-3.5-0.7c-1.7,0-2.9,0.5-3.9,1.5c-0.9,0.9-1.4,2.3-1.4,4.1c0,1.8,0.4,3.1,1.4,4.1c0.8,0.9,2.2,1.4,3.9,1.4
			c0.9,0,1.9-0.1,2.7-0.3v-4.1h-3L-205.5,498.4L-205.5,498.4z"/>
		<path class="st0" d="M-197.8,505.4V492h1.6v13.4H-197.8z"/>
		<path class="st0" d="M-188.3,505.4h-1.6v-12.1h-4.3V492h10.1v1.4h-4.3v12.1H-188.3z"/>
		<path class="st0" d="M-171.9,505.4h-1.6v-6.3h-7.1v6.3h-1.6V492h1.6v5.8h7.1V492h1.6V505.4z"/>
		<path class="st0" d="M-158,492v8.7c0,1.6-0.4,2.7-1.4,3.6c-0.9,0.8-2.2,1.4-3.8,1.4c-1.6,0-2.8-0.4-3.8-1.4
			c-0.8-0.8-1.4-2.1-1.4-3.7v-8.7h1.6v8.8c0,1.2,0.3,2,0.9,2.6c0.6,0.6,1.5,0.9,2.7,0.9c1.2,0,2-0.3,2.6-0.9
			c0.6-0.6,0.9-1.5,0.9-2.6v-8.8h1.5V492z"/>
		<path class="st0" d="M-154.4,492h3.8c1.8,0,3,0.3,3.9,0.8c0.8,0.5,1.2,1.4,1.2,2.5c0,0.8-0.2,1.5-0.6,2c-0.4,0.5-1,0.8-2,1v0.1
			c2,0.3,3,1.5,3,3.3c0,1.2-0.4,2.1-1.3,2.8c-0.8,0.6-2,1-3.5,1h-4.7V492H-154.4z M-152.9,497.8h2.6c1.2,0,1.9-0.2,2.4-0.5
			c0.5-0.3,0.7-0.9,0.7-1.8c0-0.7-0.3-1.3-0.8-1.7c-0.5-0.4-1.4-0.5-2.6-0.5h-2.3V497.8z M-152.9,499v5h2.8c1,0,1.9-0.2,2.4-0.6
			c0.5-0.4,0.8-1,0.8-2c0-0.8-0.3-1.5-0.8-1.9c-0.5-0.4-1.4-0.6-2.5-0.6h-2.7V499z"/>
	</g>
	<g>
		<path class="st1" d="M-344.3,505.4h-7.6V492h7.6v1.4h-6v4.3h5.6v1.4h-5.6v5h6V505.4z"/>
		<path class="st1" d="M-330.7,505.4h-1.8l-7.3-11.3h-0.1c0.1,1.4,0.1,2.5,0.1,3.7v7.7h-1.5V492h1.8l7.3,11.2h0.1
			c0-0.2,0-0.7-0.1-1.6c0-0.9-0.1-1.6,0-1.9V492h1.5V505.4z"/>
		<path class="st1" d="M-321.1,498.4h4.6v6.5c-0.7,0.2-1.5,0.4-2.2,0.5c-0.7,0.1-1.6,0.2-2.5,0.2c-2,0-3.7-0.6-4.7-1.8
			c-1-1.2-1.7-2.9-1.7-5.1c0-1.4,0.3-2.6,0.8-3.7c0.5-1,1.4-1.9,2.4-2.4c1-0.5,2.3-0.8,3.7-0.8c1.5,0,2.7,0.3,4,0.8l-0.6,1.4
			c-1.3-0.5-2.4-0.7-3.5-0.7c-1.7,0-2.9,0.5-3.9,1.5c-0.9,0.9-1.4,2.3-1.4,4.1c0,1.8,0.4,3.1,1.4,4.1c0.8,0.9,2.2,1.4,3.9,1.4
			c0.9,0,1.9-0.1,2.7-0.3v-4.1h-3V498.4z"/>
		<path class="st1" d="M-313.3,505.4V492h1.6v13.4H-313.3z"/>
		<path class="st1" d="M-297.6,505.4h-1.8l-7.3-11.3h-0.1c0.1,1.4,0.1,2.5,0.1,3.7v7.7h-1.5V492h1.8l7.3,11.2h0.1
			c0-0.2,0-0.7-0.1-1.6c0-0.9-0.1-1.6,0-1.9V492h1.5V505.4z"/>
		<path class="st1" d="M-286.4,505.4h-7.6V492h7.6v1.4h-6v4.3h5.6v1.4h-5.6v5h6V505.4z"/>
		<path class="st1" d="M-275.9,505.4h-7.6V492h7.6v1.4h-6v4.3h5.6v1.4h-5.6v5h6V505.4z"/>
		<path class="st1" d="M-271.3,499.9v5.6h-1.6V492h3.7c1.7,0,2.8,0.3,3.7,0.9s1.2,1.6,1.2,2.8c0,1.8-0.9,2.9-2.7,3.6l3.7,6.1h-1.9
			l-3.3-5.6H-271.3z M-271.3,498.5h2.1c1.2,0,1.9-0.2,2.4-0.6c0.5-0.4,0.7-1,0.7-2c0-0.8-0.2-1.6-0.8-1.9c-0.5-0.4-1.4-0.6-2.5-0.6
			h-2v5.1H-271.3z"/>
		<path class="st1" d="M-261.2,505.4V492h1.6v13.4H-261.2z"/>
		<path class="st1" d="M-245.4,505.4h-1.8l-7.3-11.3h-0.1c0.1,1.4,0.1,2.5,0.1,3.7v7.7h-1.5V492h1.8l7.3,11.2h0.1
			c0-0.2,0-0.7-0.1-1.6c0-0.9-0.1-1.6,0-1.9V492h1.5V505.4z"/>
		<path class="st1" d="M-235.8,498.4h4.6v6.5c-0.7,0.2-1.5,0.4-2.2,0.5c-0.7,0.1-1.6,0.2-2.5,0.2c-2,0-3.7-0.6-4.7-1.8
			c-1.2-1.3-1.7-2.9-1.7-5.1c0-1.4,0.3-2.6,0.8-3.7c0.5-1,1.4-1.9,2.4-2.4s2.3-0.8,3.7-0.8c1.5,0,2.7,0.3,4,0.8l-0.6,1.4
			c-1.3-0.5-2.4-0.7-3.5-0.7c-1.7,0-2.9,0.5-3.9,1.5c-0.9,0.9-1.4,2.3-1.4,4.1c0,1.8,0.4,3.1,1.4,4.1c0.8,0.9,2.2,1.4,3.9,1.4
			c0.9,0,1.9-0.1,2.7-0.3v-4.1h-3V498.4z"/>
	</g>
	<g>
		<g>
			<path class="st1" d="M-467.1,491.4c0-0.6,0.2-1,0.5-1.3c0.3-0.3,0.8-0.4,1.5-0.4c0.4,0,0.7,0,1.1,0.1c0.3,0.1,0.5,0.2,0.7,0.2
				v8.6c0,1.5,0.3,2.6,1,3.4c0.7,0.8,1.8,1.2,3.2,1.2c1.4,0,2.5-0.4,3.2-1.2c0.7-0.8,1-1.9,1-3.4v-7.2c0-0.6,0.2-1,0.5-1.3
				c0.3-0.3,0.8-0.4,1.4-0.4c0.4,0,0.8,0,1.1,0.1c0.3,0.1,0.5,0.2,0.7,0.2v9.4c0,1.1-0.2,2.1-0.6,3c-0.4,0.9-0.9,1.6-1.6,2.2
				c-0.7,0.6-1.5,1.1-2.5,1.4c-1,0.3-2.1,0.5-3.2,0.5c-1.2,0-2.2-0.2-3.2-0.5c-1-0.3-1.8-0.8-2.5-1.4c-0.7-0.6-1.2-1.4-1.6-2.2
				c-0.4-0.9-0.6-1.9-0.6-3V491.4z"/>
			<path class="st1" d="M-448.3,486.8c0-0.6,0.2-1,0.5-1.3c0.3-0.3,0.8-0.4,1.4-0.4c0.4,0,0.8,0,1.1,0.1c0.3,0.1,0.6,0.2,0.7,0.2
				v4.3h4.7c0.7,0,1.2,0.1,1.5,0.4c0.3,0.3,0.4,0.7,0.4,1.3c0,0.4-0.1,0.7-0.2,1c-0.1,0.3-0.2,0.5-0.3,0.7h-6.3v7.3
				c0,0.6,0.1,1,0.2,1.4c0.2,0.4,0.4,0.6,0.6,0.9c0.3,0.2,0.6,0.4,0.9,0.5c0.4,0.1,0.7,0.1,1.1,0.1c0.6,0,1.2-0.1,1.8-0.3
				c0.5-0.2,0.9-0.4,1.2-0.6l1.5,2.5c-0.2,0.1-0.4,0.3-0.7,0.5c-0.3,0.2-0.7,0.4-1.2,0.6c-0.5,0.2-1,0.3-1.5,0.4
				c-0.6,0.1-1.2,0.2-1.9,0.2c-1.9,0-3.4-0.5-4.3-1.5c-1-1-1.5-2.3-1.5-3.9V486.8z"/>
			<path class="st1" d="M-435.7,483.7c0-0.6,0.2-1,0.5-1.3c0.3-0.3,0.8-0.4,1.5-0.4c0.4,0,0.7,0,1.1,0.1c0.3,0.1,0.5,0.2,0.7,0.2
				v9.4c0.5-0.7,1.3-1.3,2.2-1.8c1-0.5,2.1-0.7,3.3-0.7c1.2,0,2.3,0.2,3.3,0.6c1,0.4,1.9,1,2.6,1.8c0.7,0.8,1.3,1.7,1.8,2.7
				c0.4,1.1,0.6,2.2,0.6,3.5c0,1.2-0.2,2.4-0.7,3.5c-0.4,1.1-1,2-1.8,2.7c-0.8,0.8-1.7,1.4-2.8,1.8c-1.1,0.4-2.3,0.7-3.5,0.7
				c-1.3,0-2.5-0.2-3.5-0.6c-1.1-0.4-2-1-2.8-1.8c-0.8-0.8-1.4-1.8-1.8-2.9c-0.4-1.2-0.7-2.6-0.7-4.1V483.7z M-427,503.1
				c0.7,0,1.4-0.1,2-0.4c0.6-0.3,1.2-0.6,1.6-1.1c0.4-0.5,0.8-1,1-1.7c0.2-0.6,0.4-1.3,0.4-2.1c0-0.8-0.1-1.5-0.4-2.1
				c-0.2-0.7-0.6-1.2-1-1.7c-0.4-0.5-1-0.8-1.6-1.1c-0.6-0.3-1.3-0.4-2-0.4c-0.8,0-1.4,0.1-2.1,0.4c-0.6,0.3-1.1,0.6-1.6,1.1
				c-0.4,0.5-0.8,1-1,1.7c-0.2,0.7-0.4,1.3-0.4,2.1c0,0.8,0.1,1.5,0.4,2.1c0.3,0.7,0.6,1.2,1,1.7c0.4,0.5,1,0.8,1.6,1.1
				C-428.4,503-427.7,503.1-427,503.1z"/>
			<path class="st1" d="M-415.9,495.5c0-2,0.6-3.5,1.8-4.6c1.2-1.1,2.9-1.6,5.1-1.6c1.4,0,2.5,0.2,3.3,0.6c0.9,0.4,1.3,1,1.3,1.7
				c0,0.4-0.1,0.7-0.3,1.1c-0.2,0.3-0.4,0.6-0.5,0.7c-0.4-0.2-0.8-0.3-1.4-0.5c-0.5-0.2-1.2-0.2-1.9-0.2c-2.5,0-3.8,1.3-3.8,4v9.4
				h-3.7V495.5z"/>
			<path class="st1" d="M-388.3,505.9c-0.2,0-0.6,0.1-1,0.1c-0.5,0.1-1,0.1-1.6,0.2c-0.6,0.1-1.3,0.1-2.1,0.1
				c-0.8,0-1.6,0.1-2.4,0.1c-1.7,0-3.1-0.1-4.2-0.4c-1.1-0.3-1.9-0.7-2.5-1.2c-0.6-0.5-1-1.1-1.3-1.7c-0.2-0.6-0.3-1.3-0.3-2
				c0-0.9,0.1-1.7,0.4-2.3c0.3-0.7,0.7-1.2,1.3-1.7c0.6-0.5,1.4-0.8,2.4-1c1-0.2,2.2-0.3,3.6-0.3c0.8,0,1.6,0,2.3,0.1
				c0.7,0.1,1.3,0.1,1.7,0.1c0-0.8-0.1-1.4-0.4-1.9c-0.3-0.5-0.6-0.9-1-1.2c-0.4-0.3-1-0.5-1.6-0.6c-0.6-0.1-1.3-0.2-2-0.2
				c-1.2,0-2.2,0.1-3,0.4c-0.7,0.3-1.2,0.5-1.5,0.7c-0.1-0.1-0.3-0.3-0.5-0.6c-0.2-0.3-0.3-0.7-0.3-1.1c0-0.3,0.1-0.6,0.2-0.9
				c0.2-0.3,0.5-0.6,0.9-0.8c0.4-0.2,1-0.4,1.7-0.5c0.7-0.1,1.6-0.2,2.6-0.2c1.3,0,2.4,0.1,3.5,0.4c1.1,0.3,2,0.6,2.7,1.2
				c0.8,0.5,1.4,1.3,1.8,2.2c0.4,0.9,0.6,2,0.6,3.2V505.9z M-392,498.7c-0.2,0-0.6-0.1-1.2-0.2c-0.6-0.1-1.5-0.1-2.7-0.1
				c-1.5,0-2.6,0.2-3.2,0.7c-0.7,0.4-1,1.1-1,2.1c0,0.4,0.1,0.7,0.2,1.1c0.1,0.3,0.4,0.6,0.7,0.8c0.3,0.2,0.8,0.4,1.4,0.5
				c0.6,0.1,1.3,0.2,2.2,0.2c1,0,1.8,0,2.4-0.1c0.6-0.1,1-0.1,1.2-0.2V498.7z"/>
			<path class="st1" d="M-383.1,482.3c0.6,0,1.2,0.2,1.6,0.7c0.4,0.4,0.7,1,0.7,1.6s-0.2,1.2-0.7,1.6c-0.4,0.4-1,0.7-1.6,0.7
				c-0.6,0-1.2-0.2-1.6-0.7c-0.4-0.4-0.7-1-0.7-1.6s0.2-1.2,0.7-1.6C-384.3,482.5-383.7,482.3-383.1,482.3z M-385,491.4
				c0-0.6,0.2-1,0.5-1.3c0.3-0.3,0.8-0.4,1.5-0.4c0.4,0,0.7,0,1.1,0.1c0.3,0.1,0.5,0.2,0.7,0.2v16h-3.7V491.4z"/>
			<path class="st1" d="M-377.9,496.1c0-1.1,0.2-2.1,0.6-2.9c0.4-0.9,1-1.6,1.7-2.2c0.7-0.6,1.5-1.1,2.5-1.4c1-0.3,2-0.5,3.2-0.5
				c1.2,0,2.2,0.2,3.2,0.5c1,0.3,1.8,0.8,2.5,1.4c0.7,0.6,1.3,1.3,1.6,2.2c0.4,0.9,0.6,1.8,0.6,2.9v9.9h-3.7v-8.9
				c0-1.5-0.4-2.6-1.1-3.4c-0.7-0.8-1.8-1.2-3.2-1.2c-1.4,0-2.5,0.4-3.2,1.2c-0.7,0.8-1.1,1.9-1.1,3.4v8.9h-3.7V496.1z"/>
		</g>
		<path class="st1" d="M-470.1,490.2c-0.6-1.4-1.4-2.7-2.5-3.7c-1.1-1.1-2.3-1.9-3.8-2.5c-1.4-0.6-3-0.9-4.7-0.9
			c-1.7,0-3.3,0.3-4.7,0.9c-1.4,0.6-2.7,1.4-3.8,2.5c-1.1,1.1-1.9,2.3-2.5,3.7c-0.6,1.4-0.9,3-0.9,4.7c0,1.7,0.3,3.2,0.9,4.7
			c0.6,1.4,1.5,2.7,2.5,3.7c1.1,1.1,2.3,1.9,3.8,2.5c1.4,0.6,3,0.9,4.7,0.9c1.7,0,3.3-0.3,4.7-0.9s2.7-1.4,3.8-2.5
			c1.1-1.1,1.9-2.3,2.5-3.7c0.6-1.4,0.9-3,0.9-4.7C-469.2,493.2-469.5,491.6-470.1,490.2z M-488.2,494c1.3-0.4,3.1-1,3.1-1
			c3.9-1.2,4.4-2.7,4.4-2.7s0.8,1.5,3.6,2.4c0,0,1.6,0.5,3,1c0.1,0.1,0.1,0.3,0.2,0.4c0.3,0.6,0.4,1.2,0.5,1.9h-2c0,0,0,0,0,0
			c-0.1-0.3-0.3-0.6-0.6-0.9c-0.3-0.3-0.6-0.4-0.9-0.6c-0.3-0.1-0.7-0.2-1.1-0.2c-0.4,0-0.8,0.1-1.1,0.2c-0.3,0.1-0.6,0.3-0.9,0.6
			c-0.3,0.3-0.5,0.5-0.6,0.9c0,0.1-0.1,0.2-0.1,0.3h-0.8c0-0.1-0.1-0.2-0.1-0.3c-0.1-0.3-0.3-0.6-0.6-0.9c-0.3-0.3-0.6-0.4-0.9-0.6
			c-0.3-0.1-0.7-0.2-1.1-0.2c-0.4,0-0.8,0.1-1.1,0.2c-0.3,0.1-0.6,0.3-0.9,0.6c-0.3,0.3-0.5,0.5-0.6,0.9c0,0,0,0,0,0h-2
			c0.1-0.7,0.3-1.3,0.5-1.9C-488.3,494.1-488.2,494-488.2,494z M-476.3,497.1c0,0.2,0,0.5-0.1,0.7c-0.1,0.2-0.2,0.4-0.4,0.5
			c-0.2,0.1-0.3,0.3-0.5,0.3c-0.2,0.1-0.4,0.1-0.7,0.1s-0.5,0-0.7-0.1c-0.2-0.1-0.4-0.2-0.5-0.3c-0.2-0.1-0.3-0.3-0.4-0.5
			c-0.1-0.2-0.1-0.4-0.1-0.7c0-0.2,0-0.5,0.1-0.7c0.1-0.2,0.2-0.4,0.4-0.5c0.2-0.1,0.3-0.3,0.5-0.3c0.2-0.1,0.4-0.1,0.7-0.1
			s0.5,0,0.7,0.1c0.2,0.1,0.4,0.2,0.5,0.3c0.2,0.1,0.3,0.3,0.4,0.5C-476.3,496.7-476.3,496.9-476.3,497.1z M-482.5,497.1
			c0,0.2,0,0.5-0.1,0.7c-0.1,0.2-0.2,0.4-0.4,0.5c-0.2,0.1-0.3,0.3-0.5,0.3c-0.2,0.1-0.4,0.1-0.7,0.1c-0.2,0-0.5,0-0.7-0.1
			c-0.2-0.1-0.4-0.2-0.5-0.3c-0.2-0.1-0.3-0.3-0.4-0.5c-0.1-0.2-0.1-0.4-0.1-0.7c0-0.2,0-0.5,0.1-0.7c0.1-0.2,0.2-0.4,0.4-0.5
			c0.2-0.1,0.3-0.3,0.5-0.3c0.2-0.1,0.4-0.1,0.7-0.1c0.2,0,0.5,0,0.7,0.1c0.2,0.1,0.4,0.2,0.5,0.3c0.2,0.1,0.3,0.3,0.4,0.5
			C-482.5,496.7-482.5,496.9-482.5,497.1z M-475.5,502.7c-0.7,0.7-1.5,1.2-2.5,1.6c-0.9,0.4-2,0.6-3.1,0.6c-1.1,0-2.1-0.2-3.1-0.6
			c-0.9-0.4-1.8-0.9-2.5-1.6c-0.7-0.7-1.3-1.5-1.7-2.4c-0.4-0.9-0.6-1.9-0.6-2.9h1.9c0,0.3,0.1,0.6,0.2,0.9c0.1,0.3,0.3,0.6,0.6,0.9
			c0.3,0.3,0.6,0.4,0.9,0.6c0.3,0.1,0.7,0.2,1.1,0.2c0.4,0,0.8-0.1,1.1-0.2c0.3-0.1,0.6-0.3,0.9-0.6c0.3-0.3,0.5-0.5,0.6-0.9
			c0.1-0.2,0.2-0.5,0.2-0.7h0.6c0,0.3,0.1,0.5,0.2,0.7c0.1,0.3,0.3,0.6,0.6,0.9c0.3,0.3,0.6,0.4,0.9,0.6c0.3,0.1,0.7,0.2,1.1,0.2
			c0.4,0,0.8-0.1,1.1-0.2c0.3-0.1,0.6-0.3,0.9-0.6c0.3-0.3,0.5-0.5,0.6-0.9c0.1-0.3,0.2-0.6,0.2-0.9h1.9c0,1.1-0.2,2-0.6,2.9
			C-474.3,501.2-474.8,502-475.5,502.7z"/>
	</g>
</g>
</svg>
