<?xml version="1.0" encoding="utf-8"?>
<!-- Generator: Adobe Illustrator 19.1.0, SVG Export Plug-In . SVG Version: 6.00 Build 0)  -->
<svg version="1.0" id="Layer_1" xmlns="http://www.w3.org/2000/svg" xmlns:xlink="http://www.w3.org/1999/xlink" x="0px" y="0px"
	 viewBox="0 0 169.6 148.6" style="enable-background:new 0 0 169.6 148.6;" xml:space="preserve">
<style type="text/css">
	.st0{fill:#231F20;}
	.st1{fill:none;stroke:#ECEBEB;stroke-width:7;stroke-linecap:round;stroke-linejoin:round;stroke-miterlimit:10;}
	.st2{fill:#3596BC;}
	.st3{fill:#00A2CE;}
	.st4{fill:#2C3F48;}
	.st5{fill:#F4C48C;}
	.st6{fill:#996939;}
	.st7{opacity:0.8;fill:#FFFFFF;}
	.st8{fill:#603913;}
	.st9{fill:#C49A6C;}
	.st10{fill:#2B3C46;}
	.st11{fill:#A0C16C;}
	.st12{fill:#617F2B;}
	.st13{fill:#2B3A44;}
	.st14{fill:#BFAF9F;}
	.st15{fill:url(#SVGID_1_);}
	.st16{fill:#FFEC7B;}
	.st17{fill:#BC432B;}
</style>
<g>
	<path class="st0" d="M134.5,74.3c0-27.4-22.2-54-49.7-54c-27.4,0-49.7,26.6-49.7,54s-4.5,55.4,49.7,55.4
		C144.8,129.7,134.5,101.7,134.5,74.3z"/>
	<path class="st1" d="M134.5,74.3c0-27.4-22.2-54-49.7-54c-27.4,0-49.7,26.6-49.7,54s-4.5,55.4,49.7,55.4
		C144.8,129.7,134.5,101.7,134.5,74.3z"/>
</g>
<g>
	<g>
		<path class="st5" d="M85.3,30.5c0,0-36.3,30.7-39.8,42.7c-0.1,0.4,4.4,28.9,5.4,29.8c8.9,8.5,21,13.7,34.3,13.7
			c12.6,0,24.1-4.7,32.9-12.4c1.3-1.2,6.1-28.4,5.8-29.9C121.6,61.7,85.3,30.5,85.3,30.5z"/>
		<path class="st8" d="M84.8,20.3c-27.4,0-49.7,26.6-49.7,54s-4.5,55.4,49.7,55.4c60,0,49.7-28,49.7-55.4S112.3,20.3,84.8,20.3z
			 M118.1,104.3c-8.8,7.7-20.3,12.4-32.9,12.4c-13.3,0-25.4-5.2-34.3-13.7c-1-1-5.5-29.4-5.4-29.8c3.4-12,39.8-32.3,39.8-32.3
			s36.3,20.8,38.6,33.5C124.2,75.9,119.5,103.2,118.1,104.3z"/>
		<g>
			<g>
				<path class="st8" d="M114.9,70.7l-1.3-2.9c-0.8-1.7-2.9-2.8-4.8-2.3l-10.7,2.7c-1.8,0.5-3.7,2.1-4.2,3.6
					c-0.4,1.5,0.7,2.7,2.6,2.7l16.3-0.5C114.8,73.9,115.7,72.5,114.9,70.7z"/>
				<path class="st8" d="M71.3,68.2l-10.7-2.7c-1.8-0.5-4,0.6-4.8,2.3l-1.3,2.9c-0.8,1.7,0.1,3.2,2,3.3l16.3,0.5
					c1.9,0.1,3.1-1.1,2.6-2.7C75,70.3,73.1,68.7,71.3,68.2z"/>
			</g>
			<g>
				<path class="st13" d="M114.9,70.7l-1.3-2.9c-0.8-1.7-2.9-2.8-4.8-2.3l-10.7,2.7c-1.8,0.5-3.7,2.1-4.2,3.6
					c-0.4,1.5,0.7,2.7,2.6,2.7l16.3-0.5C114.8,73.9,115.7,72.5,114.9,70.7z"/>
				<path class="st13" d="M71.3,68.2l-10.7-2.7c-1.8-0.5-4,0.6-4.8,2.3l-1.3,2.9c-0.8,1.7,0.1,3.2,2,3.3l16.3,0.5
					c1.9,0.1,3.1-1.1,2.6-2.7C75,70.3,73.1,68.7,71.3,68.2z"/>
			</g>
		</g>
		<path class="st14" d="M123.8,76l-7.9,20l-12.4,5.2l-10.3-15c0,0-0.1,0-0.2,0.1l-0.2-0.1c0,0-5.1,1.5-8,1.6c-2.9-0.1-8-1.6-8-1.6
			l-0.2,0.1c-0.1-0.1-0.2-0.1-0.2-0.1l-13.8,16.8l-8.9-7l-8-21.2c0,0-0.1,26.5,10.3,40.7l0,0.1c8.1,5.8,18,9.2,28.8,9.2c0,0,0,0,0,0
			s0,0,0,0c10.7,0,20.6-3.4,28.8-9.2l0-0.1C124,101.4,123.8,76,123.8,76z"/>
		<path class="st13" d="M96,97.1c0,0-6.6,1.3-11.4,1.3S73,97.1,73,97.1l-2.7,5.3c0,0,8.6-0.8,14.3-0.8s14.1,0.8,14.1,0.8L96,97.1z"
			/>
	</g>
</g>
</svg>
