<?xml version="1.0" encoding="utf-8"?>
<!-- Generator: Adobe Illustrator 19.1.0, SVG Export Plug-In . SVG Version: 6.00 Build 0)  -->
<svg version="1.0" id="Layer_1" xmlns="http://www.w3.org/2000/svg" xmlns:xlink="http://www.w3.org/1999/xlink" x="0px" y="0px"
	 viewBox="0 0 170.6 149.6" style="enable-background:new 0 0 170.6 149.6;" xml:space="preserve">
<style type="text/css">
	.st0{fill:#231F20;}
	.st1{fill:none;stroke:#ECEBEB;stroke-width:7;stroke-linecap:round;stroke-linejoin:round;stroke-miterlimit:10;}
	.st2{fill:#3596BC;}
	.st3{fill:#00A2CE;}
	.st4{fill:#2C3F48;}
	.st5{fill:#F4C48C;}
	.st6{fill:#996939;}
	.st7{opacity:0.8;fill:#FFFFFF;}
	.st8{fill:#603913;}
	.st9{fill:#C49A6C;}
	.st10{fill:#2B3C46;}
	.st11{fill:#A0C16C;}
	.st12{fill:#617F2B;}
	.st13{fill:#2B3A44;}
	.st14{fill:#BFAF9F;}
	.st15{fill:url(#SVGID_1_);}
	.st16{fill:#FFEC7B;}
	.st17{fill:#BC432B;}
</style>
<g>
	<path class="st0" d="M85.5,25.8C85.4,25.8,85.4,25.8,85.5,25.8c-0.1,0-0.1,0-0.1,0c-27.4,0-49.7,22.2-49.7,49.7
		c0,18.2,9.7,34,24.3,42.7c0,0,0.1,0.1,0.1,0.1c0.7,0.4,1.3,0.8,2,1.1c0.1,0.1,0.3,0.1,0.4,0.2c0.6,0.3,1.2,0.6,1.8,0.9
		c0.2,0.1,0.4,0.2,0.6,0.3c0.6,0.3,1.1,0.5,1.7,0.7c0.2,0.1,0.5,0.2,0.7,0.3c0.5,0.2,1.1,0.4,1.6,0.6c0.3,0.1,0.6,0.2,0.8,0.3
		c0.5,0.2,1.1,0.3,1.6,0.5c0.3,0.1,0.6,0.2,0.9,0.3c0.5,0.1,1,0.3,1.6,0.4c0.3,0.1,0.6,0.2,1,0.2c0.5,0.1,1,0.2,1.6,0.3
		c0.3,0.1,0.7,0.1,1,0.2c0.5,0.1,1.1,0.2,1.6,0.2c0.3,0,0.6,0.1,1,0.1c0.6,0.1,1.2,0.1,1.8,0.1c0.3,0,0.6,0,0.8,0.1
		c0.9,0,1.8,0.1,2.7,0.1l0,0l0,0h0c0,0,0,0,0.1,0c0,0,0,0,0.1,0c27.4,0,49.7-22.2,49.7-49.7S112.9,25.8,85.5,25.8z"/>
	<path class="st1" d="M85.5,25.8C85.4,25.8,85.4,25.8,85.5,25.8c-0.1,0-0.1,0-0.1,0c-27.4,0-49.7,22.2-49.7,49.7
		c0,18.2,9.7,34,24.3,42.7c0,0,0.1,0.1,0.1,0.1c0.7,0.4,1.3,0.8,2,1.1c0.1,0.1,0.3,0.1,0.4,0.2c0.6,0.3,1.2,0.6,1.8,0.9
		c0.2,0.1,0.4,0.2,0.6,0.3c0.6,0.3,1.1,0.5,1.7,0.7c0.2,0.1,0.5,0.2,0.7,0.3c0.5,0.2,1.1,0.4,1.6,0.6c0.3,0.1,0.6,0.2,0.8,0.3
		c0.5,0.2,1.1,0.3,1.6,0.5c0.3,0.1,0.6,0.2,0.9,0.3c0.5,0.1,1,0.3,1.6,0.4c0.3,0.1,0.6,0.2,1,0.2c0.5,0.1,1,0.2,1.6,0.3
		c0.3,0.1,0.7,0.1,1,0.2c0.5,0.1,1.1,0.2,1.6,0.2c0.3,0,0.6,0.1,1,0.1c0.6,0.1,1.2,0.1,1.8,0.1c0.3,0,0.6,0,0.8,0.1
		c0.9,0,1.8,0.1,2.7,0.1l0,0l0,0h0c0,0,0,0,0.1,0c0,0,0,0,0.1,0c27.4,0,49.7-22.2,49.7-49.7S112.9,25.8,85.5,25.8z"/>
</g>
<g>
	<g>
		<g>
			<circle class="st2" cx="85.3" cy="75.5" r="49.7"/>
			<polygon class="st3" points="93.6,80.2 95.3,74.6 112.6,70.2 116.9,79.4 			"/>
			<polygon class="st3" points="76.7,80.2 75.1,74.6 57.7,70.2 53.5,79.4 			"/>
		</g>
		<path class="st4" d="M97.1,80.1c-1.9,0.1-3.1-1.1-2.6-2.7c0.4-1.5,2.3-3.2,4.2-3.6l10.7-2.7c1.8-0.5,4,0.6,4.8,2.3l1.3,2.9
			c0.8,1.7-0.1,3.2-2,3.3L97.1,80.1z"/>
		<path class="st4" d="M73.3,80.1c1.9,0.1,3.1-1.1,2.6-2.7c-0.4-1.5-2.3-3.2-4.2-3.6l-10.7-2.7c-1.8-0.5-4,0.6-4.8,2.3l-1.3,2.9
			c-0.8,1.7,0.1,3.2,2,3.3L73.3,80.1z"/>
		<path class="st5" d="M105.4,89.7c-14,1.2-20.1-5.3-20.1-5.3s-8.3,6.8-20.9,5.3C51.8,88.1,42,74.3,42,74.3s2.4,17.5,6.1,34.1
			c9.1,10.3,22.4,16.8,37.2,16.8c14.5,0,27.6-6.2,36.6-16.1c3.9-16.8,7-34.7,7-34.7S119.4,88.5,105.4,89.7z"/>
		<path class="st6" d="M98.7,102c0,0-6.8,0-13.4,0s-14.1,0-14.1,0l-3.1,4.9c0,0,9.6-0.6,17.3-0.6s17.1,0.6,17.1,0.6L98.7,102z"/>
		<path class="st7" d="M96.4,39.6c-5.5-0.2-7.5-3.2-7.6-3.4c-0.3-0.4-0.8-0.6-1.3-0.4C87,36,86.8,36.5,86.8,37l1.7,12.8
			C87,49,85,48.7,83,48.9c-4.1,0.6-7.2,3.3-6.8,6c0.3,2.4,3.2,4.1,6.7,4.1c0.5,0,1,0,1.5-0.1c2-0.3,3.8-1,5-2.1
			c1.3-1.1,1.9-2.5,1.8-3.9c0,0,0-0.1,0-0.1l-1.8-13.2c1.4,1,3.7,2,6.9,2.1c0.6,0,1.1-0.4,1.1-1C97.5,40.1,97,39.6,96.4,39.6z"/>
	</g>
</g>
</svg>
