<?xml version="1.0" encoding="utf-8"?>
<!-- Generator: Adobe Illustrator 19.1.0, SVG Export Plug-In . SVG Version: 6.00 Build 0)  -->
<svg version="1.0" id="Layer_1" xmlns="http://www.w3.org/2000/svg" xmlns:xlink="http://www.w3.org/1999/xlink" x="0px" y="0px"
	 viewBox="0 0 169.6 148.6" style="enable-background:new 0 0 169.6 148.6;" xml:space="preserve">
<style type="text/css">
	.st0{fill:#231F20;}
	.st1{fill:none;stroke:#ECEBEB;stroke-width:7;stroke-linecap:round;stroke-linejoin:round;stroke-miterlimit:10;}
	.st2{fill:#3596BC;}
	.st3{fill:#00A2CE;}
	.st4{fill:#2C3F48;}
	.st5{fill:#F4C48C;}
	.st6{fill:#996939;}
	.st7{opacity:0.8;fill:#FFFFFF;}
	.st8{fill:#603913;}
	.st9{fill:#C49A6C;}
	.st10{fill:#2B3C46;}
	.st11{fill:#A0C16C;}
	.st12{fill:#617F2B;}
	.st13{fill:#2B3A44;}
	.st14{fill:#BFAF9F;}
	.st15{fill:url(#SVGID_1_);}
	.st16{fill:#FFEC7B;}
	.st17{fill:#BC432B;}
</style>
<g>
	<path class="st0" d="M165.6,114.7c-7.4,25.8-32.8-5.8-24.8-22.2c13.5-4.4,15.1-10.2,14.4-19.7c-2.6,11.5-13.7,7.8-13.7,7.8
		s14.3-45.3-35.6-62.3c11.8-3.4,20.8,0,20.8,0s-25.4-26.4-64.1-6C43.7,7.6,28.7,33.1,28.7,40c-16.4,6.2-13.1,25.9-13.1,25.9
		s5.1-11.3,10.2-11.7C13,70.1,25.8,86,32.7,96.8l2.1,11.5c-1.2,0.8-3.2,1.3-6.1,1.6c-3.3,3.8,0.9,13.4,1.6,17.2
		c-6.4-2.1-8.4-8.9-8.4-8.9s-6.7,14.8,21.8,23.2c1.1,0.3,2.2,0.6,3.4,0.9c0.6,0.1,10,2.4,10.1-10.9c0-6.5,0.1-9.9,0.1-13.1
		c7.7,4.9,16.8,7.7,26.6,7.7c10.3,0,19.8-3.1,27.8-8.5c0,3.7,0.1,7,0,12c-0.1,9.6,10.6,8,13,7.1c9.4-3.6,15.6-2.5,16.8-6.3
		C147.9,135.6,167.6,138.3,165.6,114.7z"/>
	<path class="st1" d="M165.6,114.7c-7.4,25.8-32.8-5.8-24.8-22.2c13.5-4.4,15.1-10.2,14.4-19.7c-2.6,11.5-13.7,7.8-13.7,7.8
		s14.3-45.3-35.6-62.3c11.8-3.4,20.8,0,20.8,0s-25.4-26.4-64.1-6C43.7,7.6,28.7,33.1,28.7,40c-16.4,6.2-13.1,25.9-13.1,25.9
		s5.1-11.3,10.2-11.7C13,70.1,25.8,86,32.7,96.8l2.1,11.5c-1.2,0.8-3.2,1.3-6.1,1.6c-3.3,3.8,0.9,13.4,1.6,17.2
		c-6.4-2.1-8.4-8.9-8.4-8.9s-6.7,14.8,21.8,23.2c1.1,0.3,2.2,0.6,3.4,0.9c0.6,0.1,10,2.4,10.1-10.9c0-6.5,0.1-9.9,0.1-13.1
		c7.7,4.9,16.8,7.7,26.6,7.7c10.3,0,19.8-3.1,27.8-8.5c0,3.7,0.1,7,0,12c-0.1,9.6,10.6,8,13,7.1c9.4-3.6,15.6-2.5,16.8-6.3
		C147.9,135.6,167.6,138.3,165.6,114.7z"/>
</g>
<g>
	<path class="st17" d="M165.6,114.7c-7.4,25.8-32.8-5.8-24.8-22.2c13.5-4.4,15.1-10.2,14.4-19.7c-2.6,11.5-13.7,7.8-13.7,7.8
		s14.3-45.3-35.6-62.3c11.8-3.4,20.8,0,20.8,0s-25.4-26.4-64.1-6C43.7,7.6,28.7,33.1,28.7,40c-16.4,6.2-13.1,25.9-13.1,25.9
		s5.1-11.3,10.2-11.7c-21.6,26.7,29.3,53.5,2.8,55.6c-3.3,3.8,0.9,13.4,1.6,17.2c-6.4-2.1-8.4-8.9-8.4-8.9s-6.7,14.8,21.8,23.2
		c1.1,0.3,2.2,0.6,3.4,0.9c0.6,0.1,10,2.4,10.1-10.9c0.1-13.3,0.1-13.3,0.1-26.2c0-31,54.3-32.1,54.3,0c0,11.4,0.2,14.8,0.1,24.4
		s10.6,8,13,7.1c9.4-3.6,15.6-2.5,16.8-6.3C147.9,135.6,167.6,138.3,165.6,114.7z"/>
	<circle class="st5" cx="83.9" cy="76.4" r="49.7"/>
	<circle class="st5" cx="83.9" cy="76.4" r="49.7"/>
	<path class="st12" d="M73,80.9c1.9,0.1,3.1-1.1,2.6-2.7c-0.4-1.5-2.3-3.2-4.2-3.6l-10.7-2.7c-1.8-0.5-4,0.6-4.8,2.3l-1.3,2.9
		c-0.8,1.7,0.1,3.2,2,3.3L73,80.9z"/>
	<path class="st12" d="M94.4,80.9c-1.9,0.1-3.1-1.1-2.6-2.7c0.4-1.5,2.3-3.2,4.2-3.6l10.7-2.7c1.8-0.5,4,0.6,4.8,2.3l1.3,2.9
		c0.8,1.7-0.1,3.2-2,3.3L94.4,80.9z"/>
	<polygon class="st12" points="111.5,70.2 110.8,74.1 107.5,72.1 	"/>
	<polygon class="st12" points="55.9,70.2 56.6,74.1 59.9,72.1 	"/>
	<path class="st12" d="M99.4,103.6c0,0-23.3-1.7-15.5-1.7s-15.5,1.7-15.5,1.7s5.8-4.8,12.6-5.3c0.6-0.1,2.3,1.1,2.9,1.1
		c0.7,0,2.6-1.1,3.3-1C93.8,98.9,99.4,103.6,99.4,103.6z"/>
	<path class="st12" d="M98.8,103.6c0,1.3-8.6,3-14.9,3s-14.9-1.6-14.9-3c0-1.3,8.6-1.8,14.9-1.8S98.8,102.2,98.8,103.6z"/>
	<path class="st17" d="M131.8,47.8l-26.3-24.1l-13-2.7l0.9-3.8l-9.6,2l-9.6-2l0.9,3.8l-13,2.7L35.8,47.8l-7.2,26.3l9,50.4
		c0,0,0-58.6,18.2-71.3c8.8-6.1,20.1,5.4,28,5.4s18.8-11.5,28-5.4c19,12.7,18.2,71.3,18.2,71.3l9-50.4L131.8,47.8z"/>
</g>
</svg>
